<svg width="15" height="13" viewBox="0 0 15 13" fill="none" xmlns="http://www.w3.org/2000/svg">
<path fill-rule="evenodd" clip-rule="evenodd" d="M1.92047 0.44043C1.12647 0.44043 0.480469 1.08643 0.480469 1.88043C0.480469 2.67443 1.12647 3.32043 1.92047 3.32043C2.71447 3.32043 3.36047 2.67443 3.36047 1.88043C3.36047 1.08643 2.71447 0.44043 1.92047 0.44043ZM1.92047 1.40043C2.18447 1.40043 2.40047 1.61643 2.40047 1.88043C2.40047 2.14443 2.18447 2.36043 1.92047 2.36043C1.65647 2.36043 1.44047 2.14443 1.44047 1.88043C1.44047 1.61643 1.65647 1.40043 1.92047 1.40043ZM1.92047 5.24043C1.12647 5.24043 0.480469 5.88643 0.480469 6.68043C0.480469 7.47443 1.12647 8.12043 1.92047 8.12043C2.71447 8.12043 3.36047 7.47443 3.36047 6.68043C3.36047 5.88643 2.71447 5.24043 1.92047 5.24043ZM1.92047 6.20043C2.18447 6.20043 2.40047 6.41643 2.40047 6.68043C2.40047 6.94443 2.18447 7.16043 1.92047 7.16043C1.65647 7.16043 1.44047 6.94443 1.44047 6.68043C1.44047 6.41643 1.65647 6.20043 1.92047 6.20043ZM1.92047 10.0404C1.12647 10.0404 0.480469 10.6864 0.480469 11.4804C0.480469 12.2744 1.12647 12.9204 1.92047 12.9204C2.71447 12.9204 3.36047 12.2744 3.36047 11.4804C3.36047 10.6864 2.71447 10.0404 1.92047 10.0404ZM1.92047 11.0004C2.18447 11.0004 2.40047 11.2164 2.40047 11.4804C2.40047 11.7444 2.18447 11.9604 1.92047 11.9604C1.65647 11.9604 1.44047 11.7444 1.44047 11.4804C1.44047 11.2164 1.65647 11.0004 1.92047 11.0004ZM4.80047 2.36043H14.4005C14.6645 2.36043 14.8805 2.14443 14.8805 1.88043C14.8805 1.61643 14.6645 1.40043 14.4005 1.40043H4.80047C4.53647 1.40043 4.32047 1.61643 4.32047 1.88043C4.32047 2.14443 4.53647 2.36043 4.80047 2.36043ZM4.80047 7.16043H14.4005C14.6645 7.16043 14.8805 6.94443 14.8805 6.68043C14.8805 6.41643 14.6645 6.20043 14.4005 6.20043H4.80047C4.53647 6.20043 4.32047 6.41643 4.32047 6.68043C4.32047 6.94443 4.53647 7.16043 4.80047 7.16043ZM4.80047 11.9604H14.4005C14.6645 11.9604 14.8805 11.7444 14.8805 11.4804C14.8805 11.2164 14.6645 11.0004 14.4005 11.0004H4.80047C4.53647 11.0004 4.32047 11.2164 4.32047 11.4804C4.32047 11.7444 4.53647 11.9604 4.80047 11.9604Z" fill="black"/>
</svg>
