<svg width="16" height="16" viewBox="0 0 16 16" fill="none" xmlns="http://www.w3.org/2000/svg">
<path fill-rule="evenodd" clip-rule="evenodd" d="M8 10.3334C7.82934 10.3334 7.65867 10.2681 7.52867 10.1381L4.862 7.47142C4.60134 7.21075 4.60134 6.78942 4.862 6.52875C5.12267 6.26809 5.544 6.26809 5.80467 6.52875L8.008 8.73208L10.2033 6.61209C10.4693 6.35675 10.89 6.36409 11.146 6.62875C11.402 6.89342 11.3947 7.31609 11.13 7.57142L8.46334 10.1461C8.33334 10.2714 8.16667 10.3334 8 10.3334Z" fill="#484B52"/>
<mask id="mask0_2002_7148" style="mask-type:luminance" maskUnits="userSpaceOnUse" x="4" y="6" width="8" height="5">
<path fill-rule="evenodd" clip-rule="evenodd" d="M8 10.3334C7.82934 10.3334 7.65867 10.2681 7.52867 10.1381L4.862 7.47142C4.60134 7.21075 4.60134 6.78942 4.862 6.52875C5.12267 6.26809 5.544 6.26809 5.80467 6.52875L8.008 8.73208L10.2033 6.61209C10.4693 6.35675 10.89 6.36409 11.146 6.62875C11.402 6.89342 11.3947 7.31609 11.13 7.57142L8.46334 10.1461C8.33334 10.2714 8.16667 10.3334 8 10.3334Z" fill="white"/>
</mask>
<g mask="url(#mask0_2002_7148)">
<rect width="16" height="16" fill="#484B52"/>
</g>
</svg>
