<svg width="15" height="14" viewBox="0 0 15 14" fill="none" xmlns="http://www.w3.org/2000/svg">
<path d="M6.26042 2.33333C6.26042 2.20073 6.31639 2.07355 6.41602 1.97978C6.51565 1.88601 6.65077 1.83333 6.79167 1.83333H13.875C14.0159 1.83333 14.151 1.88601 14.2507 1.97978C14.3503 2.07355 14.4062 2.20073 14.4062 2.33333C14.4062 2.46594 14.3503 2.59312 14.2507 2.68689C14.151 2.78066 14.0159 2.83333 13.875 2.83333H6.79167C6.65077 2.83333 6.51565 2.78066 6.41602 2.68689C6.31639 2.59312 6.26042 2.46594 6.26042 2.33333ZM6.79167 7.5H13.875C14.0159 7.5 14.151 7.44732 14.2507 7.35355C14.3503 7.25979 14.4062 7.13261 14.4062 7C14.4062 6.86739 14.3503 6.74022 14.2507 6.64645C14.151 6.55268 14.0159 6.5 13.875 6.5H6.79167C6.65077 6.5 6.51565 6.55268 6.41602 6.64645C6.31639 6.74022 6.26042 6.86739 6.26042 7C6.26042 7.13261 6.31639 7.25979 6.41602 7.35355C6.51565 7.44732 6.65077 7.5 6.79167 7.5ZM6.79167 12.1667H13.875C14.0159 12.1667 14.151 12.114 14.2507 12.0202C14.3503 11.9265 14.4062 11.7993 14.4062 11.6667C14.4062 11.5341 14.3503 11.4069 14.2507 11.3131C14.151 11.2193 14.0159 11.1667 13.875 11.1667H6.79167C6.65077 11.1667 6.51565 11.2193 6.41602 11.3131C6.31639 11.4069 6.26042 11.5341 6.26042 11.6667C6.26042 11.7993 6.31639 11.9265 6.41602 12.0202C6.51565 12.114 6.65077 12.1667 6.79167 12.1667ZM1.47917 4.5C1.33827 4.5 1.20314 4.55268 1.10352 4.64645C1.00389 4.74022 0.947917 4.86739 0.947917 5C0.947917 5.13261 1.00389 5.25979 1.10352 5.35355C1.20314 5.44732 1.33827 5.5 1.47917 5.5H3.60417C3.74506 5.5 3.88019 5.44732 3.97982 5.35355C4.07945 5.25979 4.13542 5.13261 4.13542 5C4.13542 4.86739 4.07945 4.74022 3.97982 4.64645C3.88019 4.55268 3.74506 4.5 3.60417 4.5H3.07292V1C3.07292 0.867392 3.01695 0.740215 2.91732 0.646447C2.81769 0.552678 2.68256 0.5 2.54167 0.5H1.47917C1.33827 0.5 1.20314 0.552678 1.10352 0.646447C1.00389 0.740215 0.947917 0.867392 0.947917 1C0.947917 1.13261 1.00389 1.25979 1.10352 1.35355C1.20314 1.44732 1.33827 1.5 1.47917 1.5H2.01042V4.5H1.47917ZM3.07292 11L0.80625 12.6C0.71705 12.663 0.65116 12.7507 0.617915 12.8509C0.584669 12.9511 0.585753 13.0586 0.621012 13.1581C0.656271 13.2577 0.723919 13.3443 0.814373 13.4056C0.904826 13.467 1.0135 13.5 1.125 13.5H3.95833C4.09923 13.5 4.23435 13.4473 4.33398 13.3536C4.43361 13.2598 4.48958 13.1326 4.48958 13C4.48958 12.8674 4.43361 12.7402 4.33398 12.6464C4.23435 12.5527 4.09923 12.5 3.95833 12.5H2.71875L3.71042 11.8C3.97604 11.6125 4.18634 11.3642 4.32133 11.0787C4.45632 10.7932 4.51153 10.4799 4.48171 10.1687C4.45189 9.85745 4.33804 9.55855 4.15096 9.30037C3.96388 9.04219 3.70978 8.83331 3.4128 8.69355C3.11582 8.55379 2.78581 8.48781 2.45411 8.50185C2.12241 8.5159 1.80003 8.60951 1.51759 8.77381C1.23514 8.9381 1.002 9.16762 0.840314 9.44057C0.678625 9.71351 0.59375 10.0208 0.59375 10.3333C0.59375 10.4659 0.649721 10.5931 0.749349 10.6869C0.848978 10.7807 0.984104 10.8333 1.125 10.8333C1.2659 10.8333 1.40102 10.7807 1.50065 10.6869C1.60028 10.5931 1.65625 10.4659 1.65625 10.3333C1.65625 10.1913 1.69483 10.0516 1.76832 9.92753C1.84182 9.80346 1.94779 9.69914 2.07618 9.62446C2.20456 9.54978 2.3511 9.50723 2.50187 9.50084C2.65264 9.49446 2.80265 9.52445 2.93764 9.58798C3.07263 9.6515 3.18813 9.74645 3.27316 9.8638C3.3582 9.98116 3.40995 10.117 3.42351 10.2585C3.43706 10.4 3.41196 10.5424 3.35061 10.6721C3.28925 10.8019 3.19366 10.9148 3.07292 11Z" fill="black"/>
</svg>
